<svg xmlns="http://www.w3.org/2000/svg" viewBox="0 0 309 80" width="309" height="80" role="img" aria-labelledby="hooteams-title">
  <title id="hooteams-title">HooTeams lockup</title>
  <style>
    @keyframes hoo-dispatch { 0%, 100% { opacity: 0.28; } 45% { opacity: 1; } }
    .arm { animation: hoo-dispatch 2s ease-in-out infinite; }
    .arm-2 { animation-delay: 0.18s; }
    .arm-3 { animation-delay: 0.36s; }
  </style>
  <rect width="309" height="80" rx="16" fill="#09090B"/>
  <line x1="30" y1="24" x2="30" y2="56" stroke="#FAFAFA" stroke-width="4" stroke-linecap="round"/>
  <path d="M 30,42 A 12,12 0 0 1 54,42 L 54,56" fill="none" stroke="#FAFAFA" stroke-width="4" stroke-linecap="round"/>
  <circle cx="71" cy="44" r="12" fill="none" stroke="#FAFAFA" stroke-width="4"/>
  <circle cx="95" cy="44" r="12" fill="none" stroke="#FAFAFA" stroke-width="4"/>
  <polygon points="83,41 86,44 83,47 80,44" fill="#00F0FF"/>
  <path d="M 112,32 A 16,16 0 0 1 112,56" fill="none" stroke="#00F0FF" stroke-width="3" stroke-linecap="round"/>
  <line x1="130" y1="30" x2="130" y2="60" stroke="#27272A" stroke-width="2" stroke-linecap="round"/>
  <path d="M152.78 56.0Q150.224 56.0 148.73 54.524Q147.236 53.048 147.236 50.6V39.44H141.584V36.2H147.236V30.62H150.8V36.2H158.828V39.44H150.8V50.564Q150.8 51.536 151.358 52.147999999999996Q151.916 52.76 152.852 52.76H158.648V56.0ZM172.4 56.36Q168.83599999999998 56.36 166.658 54.236000000000004Q164.48 52.112 164.48 48.44V43.760000000000005Q164.48 40.088 166.658 37.964Q168.83599999999998 35.84 172.4 35.84Q174.77599999999998 35.84 176.558 36.794000000000004Q178.34 37.748000000000005 179.32999999999998 39.458Q180.32 41.168 180.32 43.436V47.0H167.97199999999998V48.728Q167.97199999999998 50.888 169.15999999999997 52.111999999999995Q170.34799999999998 53.336 172.4 53.336Q174.128 53.336 175.24399999999997 52.688Q176.35999999999999 52.04 176.576 50.888H180.14Q179.78 53.408 177.656 54.884Q175.53199999999998 56.36 172.4 56.36ZM167.97199999999998 43.436V44.372H176.828V43.436Q176.828 41.168 175.676 39.944Q174.524 38.72 172.4 38.72Q170.27599999999998 38.72 169.12399999999997 39.944Q167.97199999999998 41.168 167.97199999999998 43.436ZM192.164 56.36Q189.10399999999998 56.36 187.322 54.65Q185.54 52.94 185.54 50.168Q185.54 47.396 187.394 45.704Q189.248 44.012 192.272 44.012H198.06799999999998V42.5Q198.06799999999998 38.864000000000004 194.036 38.864000000000004Q192.236 38.864000000000004 191.13799999999998 39.53Q190.04 40.196 189.968 41.384H186.44Q186.61999999999998 38.972 188.63599999999997 37.406000000000006Q190.652 35.84 194.036 35.84Q197.672 35.84 199.652 37.568000000000005Q201.63199999999998 39.29600000000001 201.63199999999998 42.428V56.0H198.14V52.364H198.06799999999998Q197.81599999999997 54.2 196.25 55.28Q194.684 56.36 192.164 56.36ZM193.1 53.372Q195.368 53.372 196.718 52.274Q198.06799999999998 51.176 198.06799999999998 49.268V46.64H192.59599999999998Q191.048 46.64 190.094 47.558Q189.14 48.476 189.14 49.988Q189.14 51.536 190.18399999999997 52.454Q191.22799999999998 53.372 193.1 53.372ZM206.85199999999998 56.0V36.2H209.87599999999998V38.900000000000006H209.98399999999998Q210.128 37.532 211.01 36.686Q211.892 35.84 213.26 35.84Q214.59199999999998 35.84 215.492 36.632000000000005Q216.392 37.42400000000001 216.78799999999998 38.756Q217.004 37.388000000000005 217.904 36.614000000000004Q218.80399999999997 35.84 220.17199999999997 35.84Q222.04399999999998 35.84 223.19599999999997 37.262Q224.34799999999998 38.684 224.34799999999998 40.952V56.0H221.10799999999998V40.988Q221.10799999999998 39.872 220.54999999999998 39.206Q219.992 38.540000000000006 219.05599999999998 38.540000000000006Q218.11999999999998 38.540000000000006 217.57999999999998 39.188Q217.04 39.836 217.04 40.988V56.0H214.15999999999997V40.988Q214.15999999999997 39.872 213.61999999999998 39.206Q213.07999999999998 38.540000000000006 212.14399999999998 38.540000000000006Q211.20799999999997 38.540000000000006 210.64999999999998 39.188Q210.09199999999998 39.836 210.09199999999998 40.988V56.0ZM236.408 56.288Q233.02399999999997 56.288 231.152 54.775999999999996Q229.27999999999997 53.264 229.27999999999997 50.528H232.80799999999996Q232.80799999999996 51.824 233.76199999999997 52.562Q234.71599999999998 53.3 236.408 53.3H237.99199999999996Q239.75599999999997 53.3 240.70999999999998 52.544Q241.664 51.788 241.664 50.42Q241.664 48.008 239.28799999999998 47.72L233.95999999999998 46.964Q231.83599999999998 46.64 230.68399999999997 45.218Q229.53199999999998 43.796 229.53199999999998 41.528Q229.53199999999998 38.864000000000004 231.332 37.388000000000005Q233.13199999999998 35.912000000000006 236.37199999999999 35.912000000000006H237.956Q240.97999999999996 35.912000000000006 242.85199999999998 37.352000000000004Q244.724 38.792 244.83199999999997 41.168H241.23199999999997Q241.15999999999997 40.160000000000004 240.296 39.494Q239.432 38.828 237.956 38.828H236.37199999999999Q234.75199999999998 38.828 233.86999999999998 39.548Q232.98799999999997 40.268 232.98799999999997 41.492000000000004Q232.98799999999997 43.472 234.968 43.724000000000004L239.97199999999998 44.444Q245.11999999999998 45.128 245.11999999999998 50.42Q245.11999999999998 53.228 243.26599999999996 54.757999999999996Q241.41199999999998 56.288 237.99199999999996 56.288Z" fill="#E4E4E7"/>
  <circle cx="261.1" cy="46.1" r="3.4" fill="#00F0FF"/>
  <line class="arm" x1="261.1" y1="46.1" x2="278.1" y2="34.1" stroke="#00F0FF" stroke-width="1.5" stroke-linecap="round"/>
  <circle class="arm" cx="278.1" cy="34.1" r="2.4" fill="#00F0FF"/>
  <line class="arm arm-2" x1="261.1" y1="46.1" x2="278.1" y2="46.1" stroke="#00F0FF" stroke-width="1.5" stroke-linecap="round"/>
  <circle class="arm arm-2" cx="278.1" cy="46.1" r="2.4" fill="#00F0FF"/>
  <line class="arm arm-3" x1="261.1" y1="46.1" x2="278.1" y2="58.1" stroke="#00F0FF" stroke-width="1.5" stroke-linecap="round"/>
  <circle class="arm arm-3" cx="278.1" cy="58.1" r="2.4" fill="#00F0FF"/>
</svg>
